# xmcd
#
# Track frame offsets:
#	150
#	10475
#	21001
#	40932
#	51709
#	61827
#	69904
#	81890
#	97125
#	106334
#	126671
#	143766
#	151946
#	164036
#	177051
#	188269
#	203986
#	215228
#	231236
#	242246
#
# Disc length: 3458 seconds
#
# Revision: 1
# Processed by: cddbd v1.5.1PL0 Copyright (c) Steve Scherf et al.
# Submitted via: audiograbber 1.83.01
#
DISCID=240d8014
DTITLE=Various Artist - Convoy 6 days on the road
DYEAR=2002
DGENRE=Country/Rock
TTITLE0=Dave Dudley - Six days on hte road
TTITLE1=Coasters - Charlie Brown
TTITLE2=Animals - House of the rising sun
TTITLE3=Fats Domino - Ain't that a shame
TTITLE4=Carl Perkins - Blue Suede Shoes
TTITLE5=Jerry Lee Lewis - Great Balls Of Fire
TTITLE6=Kenny Rogers - Me and Bobby McGee
TTITLE7=Canned Heat - On The Road Again
TTITLE8=Frankie Laine - Rawhide
TTITLE9=Nashville Teens - Tobacco Road
TTITLE10=DB Truckers - Convoy
TTITLE11=Coaster - Yakety Yak
TTITLE12=Troggs - Wild Thing
TTITLE13=Kenny Rogers - Ruby don't take your love to town
TTITLE14=John Lee Hooker - Boom Boom
TTITLE15=Dr and The Medics - Spirit In The Sky
TTITLE16=Frankie Laine - Mule Train
TTITLE17=Tony Burrows Of The Flowerpot Men - Lets Go To San Francisco
TTITLE18=Duane Eddy - Peter Gunn Theme
TTITLE19=Blackfoot Sue - Standing In The Road
EXTD=
EXTT0=
EXTT1=
EXTT2=
EXTT3=
EXTT4=
EXTT5=
EXTT6=
EXTT7=
EXTT8=
EXTT9=
EXTT10=
EXTT11=
EXTT12=
EXTT13=
EXTT14=
EXTT15=
EXTT16=
EXTT17=
EXTT18=
EXTT19=
PLAYORDER=
